# xmcd
#
# Track frame offsets:
#	150
#	16698
#	32099
#	47304
#	65173
#	82520
#	92781
#	106549
#	123077
#	144819
#	158195
#	176984
#	200165
#
# Disc length: 2966 seconds
#
# Revision: 0
# Processed by: cddbd v1.5.2PL0 Copyright (c) Steve Scherf et al.
# Submitted via: dBpowerAMP V4.0
#
DISCID=980b940d
DTITLE=Linda Laukkonen - Get Ready
DYEAR=1900
DGENRE=Gospel
TTITLE0=Get Ready
TTITLE1=Who is Jesus
TTITLE2=Don't forget to pray
TTITLE3=From this moment on
TTITLE4=Walking in the light
TTITLE5=I've got Jesus in my soul
TTITLE6=Det liv som Gud har gett mig
TTITLE7=Here I am 
TTITLE8=Huomisp‰iv‰‰ en m‰ tunne
TTITLE9=Huomisp‰iv‰‰ en m‰ tunne
TTITLE10=Shine On Us
TTITLE11=Crucified With Christ
TTITLE12=Ylitse kaiken
EXTD=
EXTT0=
EXTT1=
EXTT2=
EXTT3=
EXTT4=
EXTT5=
EXTT6=
EXTT7=
EXTT8=
EXTT9=
EXTT10=
EXTT11=
EXTT12=
PLAYORDER=
